name Walk1.mot
datacolumns 19
datarows 27
range 1.88000000 1.90600000
endheader

                time	   L_ground_force_vx	   L_ground_force_vy	   L_ground_force_vz	   L_ground_force_px	   L_ground_force_py	   L_ground_force_pz	   R_ground_force_vx	   R_ground_force_vy	   R_ground_force_vz	   R_ground_force_px	   R_ground_force_py	   R_ground_force_pz	   L_ground_torque_x	   L_ground_torque_y	   L_ground_torque_z	   R_ground_torque_x	   R_ground_torque_y	   R_ground_torque_z	
          1.88000000	        -12.33632460	        570.88989958	         24.77743778	          0.43183336	          0.00000000	          0.25957700	         -0.00333262	         -0.01587555	          0.00012534	         -0.00001140	          0.00000000	          0.00006103	          0.00000000	         -2.14848798	          0.00000000	          0.00000000	          0.00008007	          0.00000000	
          1.88100000	        -11.83976680	        570.81372265	         24.85744965	          0.43209736	          0.00000000	          0.25951017	         -0.00389555	         -0.01685551	          0.00003359	         -0.00001002	          0.00000000	          0.00005416	          0.00000000	         -2.15706461	          0.00000000	          0.00000000	          0.00006852	          0.00000000	
          1.88200000	        -11.34507364	        570.79907633	         24.93172427	          0.43236199	          0.00000000	          0.25944247	         -0.00439590	         -0.01768845	         -0.00005048	         -0.00000872	          0.00000000	          0.00004767	          0.00000000	         -2.16510936	          0.00000000	          0.00000000	          0.00005770	          0.00000000	
          1.88300000	        -10.85222170	        570.84554363	         24.99995018	          0.43262720	          0.00000000	          0.25937390	         -0.00483710	         -0.01838373	         -0.00012722	         -0.00000749	          0.00000000	          0.00004155	          0.00000000	         -2.17263541	          0.00000000	          0.00000000	          0.00004758	          0.00000000	
          1.88400000	        -10.36119435	        570.95265205	         25.06183500	          0.43289291	          0.00000000	          0.25930450	         -0.00522250	         -0.01895042	         -0.00019695	         -0.00000635	          0.00000000	          0.00003579	          0.00000000	         -2.17965593	          0.00000000	          0.00000000	          0.00003813	          0.00000000	
          1.88500000	         -9.87198226	        571.11987092	         25.11710601	          0.43315907	          0.00000000	          0.25923426	         -0.00555541	         -0.01939733	         -0.00026001	         -0.00000527	          0.00000000	          0.00003039	          0.00000000	         -2.18618424	          0.00000000	          0.00000000	          0.00002935	          0.00000000	
          1.88600000	         -9.38458377	        571.34661085	         25.16551078	          0.43342561	          0.00000000	          0.25916321	         -0.00583901	         -0.01973293	         -0.00031672	         -0.00000427	          0.00000000	          0.00002533	          0.00000000	         -2.19223400	          0.00000000	          0.00000000	          0.00002120	          0.00000000	
          1.88700000	         -8.89900487	        571.63222515	         25.20681792	          0.43369246	          0.00000000	          0.25909137	         -0.00607644	         -0.01996544	         -0.00036741	         -0.00000334	          0.00000000	          0.00002060	          0.00000000	         -2.19781943	          0.00000000	          0.00000000	          0.00001367	          0.00000000	
          1.88800000	         -8.41525890	        571.97601258	         25.24081788	          0.43395955	          0.00000000	          0.25901874	         -0.00627072	         -0.02010273	         -0.00041241	         -0.00000247	          0.00000000	          0.00001620	          0.00000000	         -2.20295539	          0.00000000	          0.00000000	          0.00000672	          0.00000000	
          1.88900000	         -7.93336586	        572.37722042	         25.26732393	          0.43422681	          0.00000000	          0.25894535	         -0.00642479	         -0.02015239	         -0.00045202	         -0.00000167	          0.00000000	          0.00001211	          0.00000000	         -2.20765738	          0.00000000	          0.00000000	          0.00000034	          0.00000000	
          1.89000000	         -7.45335151	        572.83504719	         25.28617311	          0.43449416	          0.00000000	          0.25887122	         -0.00654148	         -0.02012167	         -0.00048655	         -0.00000093	          0.00000000	          0.00000833	          0.00000000	         -2.21194123	          0.00000000	          0.00000000	         -0.00000550	          0.00000000	
          1.89100000	         -6.97524641	        573.34864471	         25.29722719	          0.43476155	          0.00000000	          0.25879635	         -0.00662352	         -0.02001754	         -0.00051632	         -0.00000024	          0.00000000	          0.00000483	          0.00000000	         -2.21582260	          0.00000000	          0.00000000	         -0.00001082	          0.00000000	
          1.89200000	         -6.49908482	        573.91711917	         25.30037351	          0.43502889	          0.00000000	          0.25872077	         -0.00667357	         -0.01984661	         -0.00054159	          0.00000038	          0.00000000	          0.00000162	          0.00000000	         -2.21931637	          0.00000000	          0.00000000	         -0.00001565	          0.00000000	
          1.89300000	         -6.02490355	        574.53953110	         25.29552580	          0.43529614	          0.00000000	          0.25864448	         -0.00669414	         -0.01961522	         -0.00056268	          0.00000095	          0.00000000	         -0.00000133	          0.00000000	         -2.22243606	          0.00000000	          0.00000000	         -0.00002001	          0.00000000	
          1.89400000	         -5.55274089	        575.21489475	         25.28262496	          0.43556322	          0.00000000	          0.25856750	         -0.00668766	         -0.01932938	         -0.00057984	          0.00000147	          0.00000000	         -0.00000403	          0.00000000	         -2.22519342	          0.00000000	          0.00000000	         -0.00002392	          0.00000000	
          1.89500000	         -5.08263576	        575.94217755	         25.26163993	          0.43583010	          0.00000000	          0.25848982	         -0.00665647	         -0.01899480	         -0.00059336	          0.00000193	          0.00000000	         -0.00000647	          0.00000000	         -2.22759845	          0.00000000	          0.00000000	         -0.00002741	          0.00000000	
          1.89600000	         -4.61462716	        576.72030042	         25.23256864	          0.43609673	          0.00000000	          0.25841147	         -0.00660277	         -0.01861690	         -0.00060348	          0.00000236	          0.00000000	         -0.00000869	          0.00000000	         -2.22965960	          0.00000000	          0.00000000	         -0.00003050	          0.00000000	
          1.89700000	         -4.14875387	        577.54813918	         25.19543923	          0.43636309	          0.00000000	          0.25833243	         -0.00652869	         -0.01820078	         -0.00061046	          0.00000273	          0.00000000	         -0.00001069	          0.00000000	         -2.23138440	          0.00000000	          0.00000000	         -0.00003322	          0.00000000	
          1.89800000	         -3.68505454	        578.42452708	         25.15031124	          0.43662915	          0.00000000	          0.25825272	         -0.00643624	         -0.01775126	         -0.00061454	          0.00000307	          0.00000000	         -0.00001247	          0.00000000	         -2.23278013	          0.00000000	          0.00000000	         -0.00003557	          0.00000000	
          1.89900000	         -3.22356786	        579.34825814	         25.09727664	          0.43689490	          0.00000000	          0.25817233	         -0.00632733	         -0.01727288	         -0.00061595	          0.00000336	          0.00000000	         -0.00001406	          0.00000000	         -2.23385452	          0.00000000	          0.00000000	         -0.00003759	          0.00000000	
          1.90000000	         -2.76433302	        580.31809090	         25.03646016	          0.43716034	          0.00000000	          0.25809124	         -0.00620377	         -0.01676991	         -0.00061492	          0.00000362	          0.00000000	         -0.00001546	          0.00000000	         -2.23461607	          0.00000000	          0.00000000	         -0.00003930	          0.00000000	
          1.90100000	         -2.30739030	        581.33275248	         24.96801886	          0.43742547	          0.00000000	          0.25800946	         -0.00606727	         -0.01624633	         -0.00061165	          0.00000384	          0.00000000	         -0.00001668	          0.00000000	         -2.23507421	          0.00000000	          0.00000000	         -0.00004071	          0.00000000	
          1.90200000	         -1.85278195	        582.39094235	         24.89214095	          0.43769031	          0.00000000	          0.25792697	         -0.00591945	         -0.01570587	         -0.00060634	          0.00000402	          0.00000000	         -0.00001773	          0.00000000	         -2.23523899	          0.00000000	          0.00000000	         -0.00004185	          0.00000000	
          1.90300000	         -1.40055304	        583.49133564	         24.80904447	          0.43795488	          0.00000000	          0.25784376	         -0.00576183	         -0.01515202	         -0.00059920	          0.00000418	          0.00000000	         -0.00001863	          0.00000000	         -2.23512072	          0.00000000	          0.00000000	         -0.00004274	          0.00000000	
          1.90400000	         -0.95075261	        584.63258564	         24.71897579	          0.43821921	          0.00000000	          0.25775980	         -0.00559584	         -0.01458801	         -0.00059040	          0.00000431	          0.00000000	         -0.00001938	          0.00000000	         -2.23472959	          0.00000000	          0.00000000	         -0.00004338	          0.00000000	
          1.90500000	         -0.50343475	        585.81332559	         24.62220841	          0.43848333	          0.00000000	          0.25767509	         -0.00542282	         -0.01401682	         -0.00058011	          0.00000441	          0.00000000	         -0.00001999	          0.00000000	         -2.23407517	          0.00000000	          0.00000000	         -0.00004381	          0.00000000	
          1.90600000	         -0.05865980	        587.03216961	         24.51904177	          0.43874728	          0.00000000	          0.25758961	         -0.00524401	         -0.01344124	         -0.00056851	          0.00000448	          0.00000000	         -0.00002048	          0.00000000	         -2.23316604	          0.00000000	          0.00000000	         -0.00004404	          0.00000000	
